<mxfile host="www.draw.io" modified="2019-11-01T07:51:42.958Z" agent="Mozilla/5.0 (Windows NT 10.0; Win64; x64) AppleWebKit/537.36 (KHTML, like Gecko) Chrome/78.0.3904.70 Safari/537.36" etag="ybV_Kx1Eviu4pFeyYyta" version="12.1.9" type="github" pages="1">
  <diagram id="sReOJKsJq-JK4s7hSyhE" name="Page-1">
    <mxGraphModel dx="928" dy="551" grid="1" gridSize="10" guides="1" tooltips="1" connect="1" arrows="1" fold="1" page="1" pageScale="1" pageWidth="850" pageHeight="1100" math="0" shadow="0">
      <root>
        <mxCell id="0"/>
        <mxCell id="1" parent="0"/>
        <mxCell id="hcm2L6R2eOlkkUT3U33n-1" value="Page 1&lt;br&gt;&lt;br&gt;Login Page&amp;nbsp;&lt;br&gt;&lt;br&gt;&amp;gt;Here we provide the&amp;nbsp;" style="rounded=0;whiteSpace=wrap;html=1;fontFamily=Helvetica;" parent="1" vertex="1">
          <mxGeometry x="325" y="205" width="115" height="130" as="geometry"/>
        </mxCell>
        <mxCell id="hcm2L6R2eOlkkUT3U33n-19" value="Marked Attendance" style="edgeStyle=none;rounded=0;orthogonalLoop=1;jettySize=auto;html=1;entryX=0;entryY=0.5;entryDx=0;entryDy=0;fontFamily=Helvetica;" parent="1" source="hcm2L6R2eOlkkUT3U33n-2" target="hcm2L6R2eOlkkUT3U33n-18" edge="1">
          <mxGeometry relative="1" as="geometry"/>
        </mxCell>
        <mxCell id="hcm2L6R2eOlkkUT3U33n-2" value="Page 2&lt;br&gt;&lt;br&gt;The Login for store employees.&lt;br&gt;Display all details and allow them to mark attendance.&lt;br&gt;" style="rounded=0;whiteSpace=wrap;html=1;fontFamily=Helvetica;" parent="1" vertex="1">
          <mxGeometry x="320" y="10" width="120" height="150" as="geometry"/>
        </mxCell>
        <mxCell id="hcm2L6R2eOlkkUT3U33n-28" value="Mark Attendance" style="edgeStyle=none;rounded=0;orthogonalLoop=1;jettySize=auto;html=1;entryX=0;entryY=0.5;entryDx=0;entryDy=0;fontFamily=Helvetica;" parent="1" source="hcm2L6R2eOlkkUT3U33n-3" target="hcm2L6R2eOlkkUT3U33n-18" edge="1">
          <mxGeometry relative="1" as="geometry">
            <Array as="points">
              <mxPoint x="520" y="440"/>
              <mxPoint x="520" y="160"/>
              <mxPoint x="560" y="160"/>
            </Array>
          </mxGeometry>
        </mxCell>
        <mxCell id="QpbQZH3Ash--GRd9hQPw-1" style="edgeStyle=orthogonalEdgeStyle;rounded=0;orthogonalLoop=1;jettySize=auto;html=1;entryX=-0.033;entryY=0.608;entryDx=0;entryDy=0;entryPerimeter=0;" parent="1" source="hcm2L6R2eOlkkUT3U33n-3" target="hcm2L6R2eOlkkUT3U33n-29" edge="1">
          <mxGeometry relative="1" as="geometry">
            <Array as="points">
              <mxPoint x="510" y="490"/>
              <mxPoint x="510" y="449"/>
            </Array>
          </mxGeometry>
        </mxCell>
        <mxCell id="QpbQZH3Ash--GRd9hQPw-2" value="Go To sales Page" style="text;html=1;resizable=0;points=[];align=center;verticalAlign=middle;labelBackgroundColor=#ffffff;" parent="QpbQZH3Ash--GRd9hQPw-1" vertex="1" connectable="0">
          <mxGeometry x="0.1985" y="1" relative="1" as="geometry">
            <mxPoint as="offset"/>
          </mxGeometry>
        </mxCell>
        <mxCell id="hcm2L6R2eOlkkUT3U33n-3" value="Page 3&lt;br&gt;&amp;gt;Show Employee Details&lt;br&gt;&amp;gt;Mark Attendance&lt;br&gt;&amp;gt;Go to Sales Page&lt;br&gt;&lt;br&gt;" style="rounded=0;whiteSpace=wrap;html=1;fontFamily=Helvetica;" parent="1" vertex="1">
          <mxGeometry x="325" y="370" width="120" height="130" as="geometry"/>
        </mxCell>
        <mxCell id="hcm2L6R2eOlkkUT3U33n-4" value="Page 4&lt;br&gt;&lt;br&gt;Admin Page&lt;br&gt;&lt;br&gt;&lt;br&gt;" style="rounded=0;whiteSpace=wrap;html=1;fontFamily=Helvetica;" parent="1" vertex="1">
          <mxGeometry x="324" y="530" width="120" height="130" as="geometry"/>
        </mxCell>
        <mxCell id="hcm2L6R2eOlkkUT3U33n-15" value="Validation fails" style="edgeStyle=none;rounded=0;orthogonalLoop=1;jettySize=auto;html=1;entryX=0.5;entryY=1;entryDx=0;entryDy=0;fontFamily=Helvetica;" parent="1" source="hcm2L6R2eOlkkUT3U33n-5" target="hcm2L6R2eOlkkUT3U33n-1" edge="1">
          <mxGeometry relative="1" as="geometry">
            <Array as="points">
              <mxPoint x="190" y="360"/>
              <mxPoint x="383" y="360"/>
            </Array>
          </mxGeometry>
        </mxCell>
        <mxCell id="hcm2L6R2eOlkkUT3U33n-16" value="Success" style="edgeStyle=none;rounded=0;orthogonalLoop=1;jettySize=auto;html=1;entryX=0.5;entryY=1;entryDx=0;entryDy=0;fontFamily=Helvetica;" parent="1" source="hcm2L6R2eOlkkUT3U33n-5" target="hcm2L6R2eOlkkUT3U33n-14" edge="1">
          <mxGeometry relative="1" as="geometry"/>
        </mxCell>
        <mxCell id="hcm2L6R2eOlkkUT3U33n-5" value="Check login Credentials from Login table" style="shape=process;whiteSpace=wrap;html=1;backgroundOutline=1;fontFamily=Helvetica;" parent="1" vertex="1">
          <mxGeometry x="130" y="240" width="130" height="60" as="geometry"/>
        </mxCell>
        <mxCell id="hcm2L6R2eOlkkUT3U33n-13" style="edgeStyle=orthogonalEdgeStyle;rounded=0;orthogonalLoop=1;jettySize=auto;html=1;entryX=1;entryY=0.5;entryDx=0;entryDy=0;fontFamily=Helvetica;" parent="1" source="hcm2L6R2eOlkkUT3U33n-9" target="hcm2L6R2eOlkkUT3U33n-5" edge="1">
          <mxGeometry relative="1" as="geometry"/>
        </mxCell>
        <mxCell id="hcm2L6R2eOlkkUT3U33n-9" value="Text" style="text;html=1;resizable=0;points=[];autosize=1;align=left;verticalAlign=top;spacingTop=-4;fontFamily=Helvetica;" parent="1" vertex="1">
          <mxGeometry x="320" y="260" width="40" height="20" as="geometry"/>
        </mxCell>
        <mxCell id="hcm2L6R2eOlkkUT3U33n-17" value="Store Employee" style="edgeStyle=none;rounded=0;orthogonalLoop=1;jettySize=auto;html=1;entryX=0;entryY=0.5;entryDx=0;entryDy=0;fontFamily=Helvetica;" parent="1" source="hcm2L6R2eOlkkUT3U33n-14" target="hcm2L6R2eOlkkUT3U33n-2" edge="1">
          <mxGeometry relative="1" as="geometry">
            <Array as="points">
              <mxPoint x="195" y="80"/>
            </Array>
          </mxGeometry>
        </mxCell>
        <mxCell id="hcm2L6R2eOlkkUT3U33n-26" style="edgeStyle=none;rounded=0;orthogonalLoop=1;jettySize=auto;html=1;entryX=0;entryY=0.5;entryDx=0;entryDy=0;fontFamily=Helvetica;" parent="1" source="hcm2L6R2eOlkkUT3U33n-14" target="hcm2L6R2eOlkkUT3U33n-3" edge="1">
          <mxGeometry relative="1" as="geometry">
            <Array as="points">
              <mxPoint x="50" y="150"/>
              <mxPoint x="40" y="440"/>
            </Array>
          </mxGeometry>
        </mxCell>
        <mxCell id="hcm2L6R2eOlkkUT3U33n-27" value="Sales Employee" style="text;html=1;resizable=0;points=[];align=center;verticalAlign=middle;labelBackgroundColor=#ffffff;fontFamily=Helvetica;" parent="hcm2L6R2eOlkkUT3U33n-26" vertex="1" connectable="0">
          <mxGeometry x="0.4139" relative="1" as="geometry">
            <mxPoint as="offset"/>
          </mxGeometry>
        </mxCell>
        <mxCell id="QpbQZH3Ash--GRd9hQPw-3" style="edgeStyle=orthogonalEdgeStyle;rounded=0;orthogonalLoop=1;jettySize=auto;html=1;entryX=0.008;entryY=0.592;entryDx=0;entryDy=0;entryPerimeter=0;" parent="1" source="hcm2L6R2eOlkkUT3U33n-14" target="hcm2L6R2eOlkkUT3U33n-4" edge="1">
          <mxGeometry relative="1" as="geometry">
            <Array as="points">
              <mxPoint x="70" y="180"/>
              <mxPoint x="70" y="607"/>
            </Array>
          </mxGeometry>
        </mxCell>
        <mxCell id="QpbQZH3Ash--GRd9hQPw-4" value="Admin Login" style="text;html=1;resizable=0;points=[];align=center;verticalAlign=middle;labelBackgroundColor=#ffffff;" parent="QpbQZH3Ash--GRd9hQPw-3" vertex="1" connectable="0">
          <mxGeometry x="0.4229" relative="1" as="geometry">
            <mxPoint as="offset"/>
          </mxGeometry>
        </mxCell>
        <mxCell id="hcm2L6R2eOlkkUT3U33n-14" value="Check login_type from emp table" style="shape=process;whiteSpace=wrap;html=1;backgroundOutline=1;fontFamily=Helvetica;" parent="1" vertex="1">
          <mxGeometry x="135" y="120" width="120" height="60" as="geometry"/>
        </mxCell>
        <mxCell id="hcm2L6R2eOlkkUT3U33n-21" value="Yes" style="edgeStyle=none;rounded=0;orthogonalLoop=1;jettySize=auto;html=1;entryX=0;entryY=0.5;entryDx=0;entryDy=0;fontFamily=Helvetica;" parent="1" source="hcm2L6R2eOlkkUT3U33n-18" target="hcm2L6R2eOlkkUT3U33n-20" edge="1">
          <mxGeometry relative="1" as="geometry"/>
        </mxCell>
        <mxCell id="hcm2L6R2eOlkkUT3U33n-23" value="No" style="edgeStyle=none;rounded=0;orthogonalLoop=1;jettySize=auto;html=1;entryX=0.5;entryY=0;entryDx=0;entryDy=0;fontFamily=Helvetica;" parent="1" source="hcm2L6R2eOlkkUT3U33n-18" target="hcm2L6R2eOlkkUT3U33n-22" edge="1">
          <mxGeometry relative="1" as="geometry"/>
        </mxCell>
        <mxCell id="hcm2L6R2eOlkkUT3U33n-18" value="Check if entry for current date exists." style="shape=process;whiteSpace=wrap;html=1;backgroundOutline=1;fontFamily=Helvetica;" parent="1" vertex="1">
          <mxGeometry x="580" y="60" width="120" height="70" as="geometry"/>
        </mxCell>
        <mxCell id="hcm2L6R2eOlkkUT3U33n-20" value="Enter End Time" style="rounded=1;whiteSpace=wrap;html=1;fontFamily=Helvetica;" parent="1" vertex="1">
          <mxGeometry x="750" y="60" width="120" height="50" as="geometry"/>
        </mxCell>
        <mxCell id="hcm2L6R2eOlkkUT3U33n-22" value="Make a new entry and enter start time" style="rounded=1;whiteSpace=wrap;html=1;fontFamily=Helvetica;" parent="1" vertex="1">
          <mxGeometry x="730" y="190" width="120" height="60" as="geometry"/>
        </mxCell>
        <mxCell id="oiiH-oroYYwA4BrAmpBy-3" value="Checkout" style="edgeStyle=orthogonalEdgeStyle;rounded=0;orthogonalLoop=1;jettySize=auto;html=1;entryX=0.5;entryY=0;entryDx=0;entryDy=0;" edge="1" parent="1" source="hcm2L6R2eOlkkUT3U33n-29" target="oiiH-oroYYwA4BrAmpBy-2">
          <mxGeometry relative="1" as="geometry"/>
        </mxCell>
        <mxCell id="oiiH-oroYYwA4BrAmpBy-9" style="edgeStyle=orthogonalEdgeStyle;rounded=0;orthogonalLoop=1;jettySize=auto;html=1;" edge="1" parent="1" source="hcm2L6R2eOlkkUT3U33n-29" target="oiiH-oroYYwA4BrAmpBy-8">
          <mxGeometry relative="1" as="geometry"/>
        </mxCell>
        <mxCell id="hcm2L6R2eOlkkUT3U33n-29" value="Page 5&lt;br&gt;&amp;gt;Allow Interface to add items to bill&lt;br&gt;&amp;gt;Allow to add customers(or check if they exist)&lt;br&gt;&amp;gt;Allow to checkout" style="rounded=0;whiteSpace=wrap;html=1;fontFamily=Helvetica;" parent="1" vertex="1">
          <mxGeometry x="680" y="370" width="120" height="130" as="geometry"/>
        </mxCell>
        <mxCell id="oiiH-oroYYwA4BrAmpBy-5" value="Go for new bill Cycle" style="edgeStyle=orthogonalEdgeStyle;rounded=0;orthogonalLoop=1;jettySize=auto;html=1;entryX=0;entryY=0.75;entryDx=0;entryDy=0;" edge="1" parent="1" source="oiiH-oroYYwA4BrAmpBy-1" target="hcm2L6R2eOlkkUT3U33n-29">
          <mxGeometry relative="1" as="geometry">
            <Array as="points">
              <mxPoint x="600" y="740"/>
              <mxPoint x="600" y="468"/>
            </Array>
          </mxGeometry>
        </mxCell>
        <mxCell id="oiiH-oroYYwA4BrAmpBy-1" value="Page 6&lt;br&gt;&lt;br&gt;Display the bill along with relevant details." style="rounded=0;whiteSpace=wrap;html=1;" vertex="1" parent="1">
          <mxGeometry x="680" y="690" width="120" height="140" as="geometry"/>
        </mxCell>
        <mxCell id="oiiH-oroYYwA4BrAmpBy-4" value="" style="edgeStyle=orthogonalEdgeStyle;rounded=0;orthogonalLoop=1;jettySize=auto;html=1;" edge="1" parent="1" source="oiiH-oroYYwA4BrAmpBy-2" target="oiiH-oroYYwA4BrAmpBy-1">
          <mxGeometry relative="1" as="geometry"/>
        </mxCell>
        <mxCell id="oiiH-oroYYwA4BrAmpBy-2" value="Update Sales Record" style="rounded=1;whiteSpace=wrap;html=1;" vertex="1" parent="1">
          <mxGeometry x="680" y="565" width="120" height="60" as="geometry"/>
        </mxCell>
        <mxCell id="oiiH-oroYYwA4BrAmpBy-8" value="With Each addition to bill" style="shape=process;whiteSpace=wrap;html=1;backgroundOutline=1;" vertex="1" parent="1">
          <mxGeometry x="880" y="405" width="120" height="60" as="geometry"/>
        </mxCell>
      </root>
    </mxGraphModel>
  </diagram>
</mxfile>
